<svg xmlns="http://www.w3.org/2000/svg" xmlns:xlink="http://www.w3.org/1999/xlink" width="288" zoomAndPan="magnify" viewBox="0 0 216 93.749996" height="125" preserveAspectRatio="xMidYMid meet" version="1.0"><defs><g/><clipPath id="c8c4df77a1"><path d="M 11 6 L 209 6 L 209 93.5 L 11 93.5 Z M 11 6 " clip-rule="nonzero"/></clipPath><clipPath id="7bebae4c7a"><rect x="0" width="198" y="0" height="88"/></clipPath></defs><g clip-path="url(#c8c4df77a1)"><g transform="matrix(1, 0, 0, 1, 11, 6)"><g clip-path="url(#7bebae4c7a)"><g fill="#ffffff" fill-opacity="1"><g transform="translate(1.517708, 74.391445)"><g><path d="M 59 -41.828125 C 56.226562 -41.453125 54.132812 -40.585938 52.71875 -39.234375 C 51.300781 -37.878906 50.332031 -36.203125 49.8125 -34.203125 C 49.289062 -32.203125 49.03125 -30.09375 49.03125 -27.875 C 49.03125 -25.664062 49.0625 -23.484375 49.125 -21.328125 C 49.125 -20.898438 49.164062 -19.929688 49.25 -18.421875 C 49.34375 -16.910156 49.421875 -15.1875 49.484375 -13.25 C 49.546875 -11.3125 49.53125 -9.398438 49.4375 -7.515625 C 49.34375 -5.640625 49.125 -4.070312 48.78125 -2.8125 C 48.445312 -1.550781 47.941406 -0.859375 47.265625 -0.734375 C 46.160156 -0.609375 44.914062 -0.4375 43.53125 -0.21875 C 42.144531 -0.0078125 40.804688 0.046875 39.515625 -0.046875 C 38.222656 -0.140625 37.144531 -0.523438 36.28125 -1.203125 C 35.425781 -1.878906 35 -3.015625 35 -4.609375 C 34.9375 -9.171875 34.90625 -13.742188 34.90625 -18.328125 C 34.90625 -22.910156 34.71875 -27.453125 34.34375 -31.953125 C 34.15625 -34.472656 33.460938 -36.703125 32.265625 -38.640625 C 31.066406 -40.578125 29.019531 -41.671875 26.125 -41.921875 C 25.945312 -41.984375 25.703125 -42.015625 25.390625 -42.015625 C 22.804688 -42.015625 20.726562 -41.394531 19.15625 -40.15625 C 17.582031 -38.925781 16.410156 -37.328125 15.640625 -35.359375 C 14.878906 -33.390625 14.375 -31.3125 14.125 -29.125 C 13.875 -26.945312 13.78125 -24.867188 13.84375 -22.890625 C 13.90625 -20.179688 13.953125 -17.457031 13.984375 -14.71875 C 14.015625 -11.988281 14.03125 -9.269531 14.03125 -6.5625 C 14.09375 -4.40625 13.878906 -2.910156 13.390625 -2.078125 C 12.898438 -1.242188 12.066406 -0.75 10.890625 -0.59375 C 9.722656 -0.445312 8.125 -0.28125 6.09375 -0.09375 C 3.75 0.09375 2.175781 -0.425781 1.375 -1.65625 C 0.582031 -2.894531 0.1875 -4.585938 0.1875 -6.734375 C 0.1875 -11.109375 0.1875 -15.507812 0.1875 -19.9375 C 0.1875 -24.375 0.1875 -28.804688 0.1875 -33.234375 C 0.1875 -35.453125 0.1875 -37.65625 0.1875 -39.84375 C 0.1875 -42.03125 0.1875 -44.226562 0.1875 -46.4375 C 0.1875 -47.300781 0.140625 -48.347656 0.046875 -49.578125 C -0.046875 -50.804688 0.210938 -51.726562 0.828125 -52.34375 C 1.078125 -52.65625 1.660156 -52.8125 2.578125 -52.8125 C 2.765625 -52.8125 2.976562 -52.8125 3.21875 -52.8125 C 3.46875 -52.8125 3.71875 -52.78125 3.96875 -52.71875 C 4.832031 -52.59375 5.660156 -52.453125 6.453125 -52.296875 C 7.253906 -52.148438 8.054688 -52.015625 8.859375 -51.890625 C 10.148438 -51.640625 11.457031 -51.40625 12.78125 -51.1875 C 14.101562 -50.976562 15.441406 -50.78125 16.796875 -50.59375 C 16.921875 -50.59375 17.03125 -50.59375 17.125 -50.59375 C 17.21875 -50.59375 17.296875 -50.59375 17.359375 -50.59375 C 17.972656 -50.59375 18.523438 -50.6875 19.015625 -50.875 C 19.515625 -51.0625 19.976562 -51.210938 20.40625 -51.328125 C 20.53125 -51.453125 20.664062 -51.53125 20.8125 -51.5625 C 20.96875 -51.59375 21.078125 -51.640625 21.140625 -51.703125 C 22.867188 -52.253906 24.4375 -52.679688 25.84375 -52.984375 C 27.257812 -53.296875 28.585938 -53.453125 29.828125 -53.453125 C 33.578125 -53.453125 36.773438 -52.007812 39.421875 -49.125 C 41.148438 -47.394531 42.9375 -46.53125 44.78125 -46.53125 C 45.882812 -46.53125 46.882812 -46.773438 47.78125 -47.265625 C 48.675781 -47.765625 49.488281 -48.289062 50.21875 -48.84375 C 50.40625 -48.96875 50.578125 -49.085938 50.734375 -49.203125 C 50.890625 -49.328125 51.03125 -49.421875 51.15625 -49.484375 C 55.15625 -52.191406 59.398438 -53.546875 63.890625 -53.546875 C 66.960938 -53.546875 69.882812 -52.898438 72.65625 -51.609375 C 75.425781 -50.316406 77.828125 -48.410156 79.859375 -45.890625 C 81.210938 -44.222656 82.179688 -42.328125 82.765625 -40.203125 C 83.359375 -38.085938 83.726562 -35.84375 83.875 -33.46875 C 84.03125 -31.101562 84.09375 -28.75 84.0625 -26.40625 C 84.03125 -24.0625 84.109375 -21.875 84.296875 -19.84375 C 84.546875 -17.132812 84.789062 -14.332031 85.03125 -11.4375 C 85.28125 -8.550781 84.878906 -5.785156 83.828125 -3.140625 C 83.398438 -2.085938 82.753906 -1.40625 81.890625 -1.09375 C 81.035156 -0.789062 80.082031 -0.6875 79.03125 -0.78125 C 77.988281 -0.875 76.910156 -0.890625 75.796875 -0.828125 C 74.265625 -0.828125 73.144531 -0.90625 72.4375 -1.0625 C 71.726562 -1.21875 71.265625 -1.648438 71.046875 -2.359375 C 70.828125 -3.066406 70.65625 -4.21875 70.53125 -5.8125 C 70.289062 -10.375 70.203125 -14.960938 70.265625 -19.578125 C 70.328125 -24.191406 70.109375 -28.710938 69.609375 -33.140625 C 69.304688 -35.910156 68.367188 -38.082031 66.796875 -39.65625 C 65.222656 -41.226562 63.207031 -42.015625 60.75 -42.015625 C 60.5 -42.015625 60.21875 -42 59.90625 -41.96875 C 59.601562 -41.9375 59.300781 -41.890625 59 -41.828125 Z M 59 -41.828125 "/></g></g></g><g fill="#ffffff" fill-opacity="1"><g transform="translate(86.81522, 74.391445)"><g><path d="M 3.515625 -58.171875 C 2.160156 -59.023438 1.171875 -60.238281 0.546875 -61.8125 C -0.0664062 -63.382812 -0.09375 -65.09375 0.46875 -66.9375 C 1.507812 -70.570312 3.96875 -72.445312 7.84375 -72.5625 L 8.03125 -72.5625 C 9.9375 -72.5625 11.535156 -72.050781 12.828125 -71.03125 C 14.117188 -70.019531 14.984375 -68.625 15.421875 -66.84375 C 15.972656 -64.625 15.753906 -62.59375 14.765625 -60.75 C 13.785156 -58.90625 12.125 -57.707031 9.78125 -57.15625 C 8.613281 -56.90625 7.488281 -56.867188 6.40625 -57.046875 C 5.332031 -57.234375 4.367188 -57.609375 3.515625 -58.171875 Z M 2.21875 -48.9375 C 3.082031 -49.488281 4.3125 -49.734375 5.90625 -49.671875 C 6.832031 -49.671875 7.847656 -49.703125 8.953125 -49.765625 C 10.066406 -49.828125 11.097656 -49.71875 12.046875 -49.4375 C 13.003906 -49.164062 13.632812 -48.535156 13.9375 -47.546875 C 14.488281 -46.003906 14.671875 -44.140625 14.484375 -41.953125 C 14.304688 -39.773438 14.21875 -37.882812 14.21875 -36.28125 C 14.28125 -32.53125 14.3125 -28.804688 14.3125 -25.109375 C 14.3125 -21.421875 14.34375 -17.695312 14.40625 -13.9375 C 14.40625 -13.320312 14.476562 -12.289062 14.625 -10.84375 C 14.78125 -9.394531 14.875 -7.835938 14.90625 -6.171875 C 14.9375 -4.515625 14.765625 -3.101562 14.390625 -1.9375 C 14.023438 -0.769531 13.289062 -0.15625 12.1875 -0.09375 C 10.769531 -0.03125 9.289062 0.015625 7.75 0.046875 C 6.21875 0.078125 4.742188 0 3.328125 -0.1875 C 2.335938 -0.3125 1.65625 -0.847656 1.28125 -1.796875 C 0.914062 -2.753906 0.71875 -3.910156 0.6875 -5.265625 C 0.65625 -6.617188 0.703125 -7.910156 0.828125 -9.140625 C 0.953125 -10.367188 1.015625 -11.320312 1.015625 -12 C 0.953125 -14.519531 0.90625 -17.054688 0.875 -19.609375 C 0.84375 -22.171875 0.828125 -24.710938 0.828125 -27.234375 C 0.765625 -29.390625 0.734375 -31.546875 0.734375 -33.703125 C 0.734375 -35.859375 0.703125 -37.984375 0.640625 -40.078125 C 0.640625 -41.859375 0.609375 -43.578125 0.546875 -45.234375 C 0.492188 -46.898438 1.050781 -48.132812 2.21875 -48.9375 Z M 2.21875 -48.9375 "/></g></g></g><g fill="#ffffff" fill-opacity="1"><g transform="translate(102.784374, 74.391445)"><g><path d="M 45.609375 -10.625 C 46.097656 -10.125 46.34375 -9.257812 46.34375 -8.03125 C 46.34375 -6.800781 46.359375 -5.554688 46.390625 -4.296875 C 46.421875 -3.035156 46.191406 -1.972656 45.703125 -1.109375 C 45.210938 -0.242188 44.101562 0.15625 42.375 0.09375 C 39.425781 -0.03125 36.472656 -0.125 33.515625 -0.1875 C 30.554688 -0.25 27.570312 -0.28125 24.5625 -0.28125 C 20.988281 -0.28125 17.398438 -0.265625 13.796875 -0.234375 C 10.203125 -0.203125 6.585938 -0.1875 2.953125 -0.1875 C 1.597656 -0.1875 0.734375 -0.753906 0.359375 -1.890625 C -0.00390625 -3.023438 -0.0507812 -4.410156 0.21875 -6.046875 C 0.5 -7.679688 0.882812 -9.234375 1.375 -10.703125 C 1.875 -12.179688 2.304688 -13.195312 2.671875 -13.75 C 3.785156 -15.726562 5.171875 -17.53125 6.828125 -19.15625 C 8.492188 -20.789062 10.066406 -22.46875 11.546875 -24.1875 C 13.140625 -26.15625 14.707031 -28.125 16.25 -30.09375 C 17.789062 -32.0625 19.238281 -34.09375 20.59375 -36.1875 C 21.082031 -36.988281 21.492188 -37.910156 21.828125 -38.953125 C 22.171875 -40.003906 21.757812 -40.773438 20.59375 -41.265625 C 20.15625 -41.453125 19.722656 -41.5625 19.296875 -41.59375 C 18.867188 -41.625 18.4375 -41.640625 18 -41.640625 C 16.46875 -41.640625 14.929688 -41.640625 13.390625 -41.640625 C 11.847656 -41.640625 10.304688 -41.609375 8.765625 -41.546875 C 7.972656 -41.546875 6.910156 -41.484375 5.578125 -41.359375 C 4.253906 -41.234375 3.285156 -41.484375 2.671875 -42.109375 C 2.242188 -42.597656 1.984375 -43.332031 1.890625 -44.3125 C 1.796875 -45.300781 1.75 -46.378906 1.75 -47.546875 C 1.8125 -49.953125 2.023438 -51.492188 2.390625 -52.171875 C 2.765625 -52.847656 3.816406 -53.1875 5.546875 -53.1875 C 5.660156 -53.1875 5.75 -53.1875 5.8125 -53.1875 C 5.875 -53.1875 5.9375 -53.1875 6 -53.1875 C 9.875 -53.0625 13.75 -52.984375 17.625 -52.953125 C 21.507812 -52.921875 25.390625 -52.90625 29.265625 -52.90625 C 30.316406 -52.90625 31.75 -53.007812 33.5625 -53.21875 C 35.375 -53.4375 37.203125 -53.53125 39.046875 -53.5 C 40.898438 -53.46875 42.410156 -53.144531 43.578125 -52.53125 C 44.742188 -51.914062 45.238281 -50.804688 45.0625 -49.203125 C 44.625 -46.191406 43.851562 -43.421875 42.75 -40.890625 C 41.644531 -38.367188 40.101562 -35.972656 38.125 -33.703125 C 35.363281 -30.617188 32.597656 -27.566406 29.828125 -24.546875 C 27.054688 -21.535156 24.316406 -18.492188 21.609375 -15.421875 C 20.867188 -14.617188 20.710938 -13.753906 21.140625 -12.828125 C 21.578125 -11.972656 22.394531 -11.453125 23.59375 -11.265625 C 24.789062 -11.078125 26.066406 -11.046875 27.421875 -11.171875 C 28.773438 -11.296875 29.820312 -11.359375 30.5625 -11.359375 C 32.71875 -11.359375 34.867188 -11.359375 37.015625 -11.359375 C 39.171875 -11.359375 41.328125 -11.359375 43.484375 -11.359375 C 44.410156 -11.359375 45.117188 -11.113281 45.609375 -10.625 Z M 45.609375 -10.625 "/></g></g></g><g fill="#ffffff" fill-opacity="1"><g transform="translate(149.494336, 74.391445)"><g><path d="M 45.140625 -2.3125 C 44.648438 -1.695312 43.882812 -1.359375 42.84375 -1.296875 C 41.851562 -1.296875 40.894531 -1.492188 39.96875 -1.890625 C 39.050781 -2.296875 38.144531 -2.695312 37.25 -3.09375 C 36.363281 -3.488281 35.394531 -3.6875 34.34375 -3.6875 C 33.664062 -3.6875 32.988281 -3.640625 32.3125 -3.546875 C 31.632812 -3.460938 31.019531 -3.359375 30.46875 -3.234375 L 30 -3.140625 C 28.21875 -2.828125 26.476562 -2.425781 24.78125 -1.9375 C 23.09375 -1.445312 21.507812 -0.957031 20.03125 -0.46875 C 19.351562 -0.28125 18.660156 -0.125 17.953125 0 C 17.242188 0.125 16.519531 0.1875 15.78125 0.1875 C 11.289062 0.1875 7.507812 -1.597656 4.4375 -5.171875 C 0.925781 -9.171875 -0.457031 -14.09375 0.28125 -19.9375 C 0.582031 -22.28125 1.394531 -24.375 2.71875 -26.21875 C 4.039062 -28.0625 5.71875 -29.476562 7.75 -30.46875 C 8.800781 -30.957031 9.910156 -31.3125 11.078125 -31.53125 C 12.242188 -31.75 13.445312 -31.945312 14.6875 -32.125 C 14.988281 -32.125 15.257812 -32.140625 15.5 -32.171875 C 15.75 -32.203125 16 -32.25 16.25 -32.3125 L 28.34375 -33.984375 C 29.945312 -34.222656 30.945312 -34.695312 31.34375 -35.40625 C 31.75 -36.113281 31.976562 -36.679688 32.03125 -37.109375 C 32.15625 -38.160156 31.832031 -39.113281 31.0625 -39.96875 C 30.300781 -40.832031 29.394531 -41.421875 28.34375 -41.734375 C 26.4375 -42.472656 24.46875 -42.84375 22.4375 -42.84375 L 22.15625 -42.84375 C 20.25 -42.78125 18.429688 -42.5 16.703125 -42 C 14.984375 -41.507812 13.320312 -40.925781 11.71875 -40.25 C 11.226562 -40.007812 10.644531 -39.890625 9.96875 -39.890625 C 8.613281 -39.890625 7.273438 -40.332031 5.953125 -41.21875 C 4.628906 -42.113281 3.691406 -43.175781 3.140625 -44.40625 C 2.890625 -44.894531 2.78125 -45.304688 2.8125 -45.640625 C 2.84375 -45.984375 2.890625 -46.25 2.953125 -46.4375 C 3.328125 -47.238281 4.050781 -47.960938 5.125 -48.609375 C 6.195312 -49.253906 7.332031 -49.804688 8.53125 -50.265625 C 9.738281 -50.734375 10.742188 -51.085938 11.546875 -51.328125 C 15.972656 -52.742188 20.429688 -53.453125 24.921875 -53.453125 C 25.359375 -53.453125 25.789062 -53.453125 26.21875 -53.453125 C 26.65625 -53.453125 27.085938 -53.421875 27.515625 -53.359375 C 29.671875 -53.242188 32.054688 -52.832031 34.671875 -52.125 C 37.285156 -51.414062 39.515625 -50.078125 41.359375 -48.109375 C 43.515625 -45.765625 44.804688 -43.425781 45.234375 -41.09375 C 45.734375 -38.4375 45.90625 -35.675781 45.75 -32.8125 C 45.59375 -29.957031 45.546875 -27.175781 45.609375 -24.46875 C 45.609375 -21.695312 45.609375 -18.910156 45.609375 -16.109375 C 45.609375 -13.304688 45.640625 -10.550781 45.703125 -7.84375 C 45.703125 -6.925781 45.75 -5.941406 45.84375 -4.890625 C 45.9375 -3.847656 45.703125 -2.988281 45.140625 -2.3125 Z M 31.765625 -18.1875 C 32.253906 -19.175781 32.40625 -20.007812 32.21875 -20.6875 C 32.039062 -21.363281 31.859375 -21.820312 31.671875 -22.0625 C 31.421875 -22.4375 31.035156 -22.789062 30.515625 -23.125 C 29.992188 -23.46875 29.269531 -23.671875 28.34375 -23.734375 L 27.609375 -23.828125 C 27.054688 -23.878906 26.484375 -23.90625 25.890625 -23.90625 C 25.304688 -23.90625 24.675781 -23.90625 24 -23.90625 C 22.957031 -23.90625 21.695312 -23.796875 20.21875 -23.578125 C 18.738281 -23.367188 17.320312 -22.800781 15.96875 -21.875 C 15.050781 -21.144531 14.46875 -20.378906 14.21875 -19.578125 C 13.96875 -18.898438 13.9375 -18.035156 14.125 -16.984375 C 14.550781 -15.078125 15.378906 -13.597656 16.609375 -12.546875 C 17.847656 -11.503906 19.328125 -10.984375 21.046875 -10.984375 C 23.203125 -10.984375 25.328125 -11.691406 27.421875 -13.109375 C 29.515625 -14.523438 30.960938 -16.21875 31.765625 -18.1875 Z M 31.765625 -18.1875 "/></g></g></g></g></g></g></svg>