<svg xmlns="http://www.w3.org/2000/svg" xmlns:xlink="http://www.w3.org/1999/xlink" width="288" zoomAndPan="magnify" viewBox="0 0 216 215.999996" height="288" preserveAspectRatio="xMidYMid meet" version="1.0"><defs><g/><clipPath id="7b6ecf5667"><rect x="0" width="141" y="0" height="203"/></clipPath></defs><g transform="matrix(1, 0, 0, 1, 32, 13)"><g clip-path="url(#7b6ecf5667)"><g fill="#000000" fill-opacity="1"><g transform="translate(2.771289, 98.195716)"><g><path d="M 78.296875 -55.5 C 74.617188 -55.007812 71.835938 -53.863281 69.953125 -52.0625 C 68.078125 -50.269531 66.789062 -48.046875 66.09375 -45.390625 C 65.40625 -42.742188 65.0625 -39.945312 65.0625 -37 C 65.0625 -34.0625 65.101562 -31.164062 65.1875 -28.3125 C 65.1875 -27.738281 65.242188 -26.445312 65.359375 -24.4375 C 65.484375 -22.4375 65.585938 -20.148438 65.671875 -17.578125 C 65.753906 -15.003906 65.734375 -12.472656 65.609375 -9.984375 C 65.492188 -7.492188 65.207031 -5.410156 64.75 -3.734375 C 64.300781 -2.054688 63.628906 -1.140625 62.734375 -0.984375 C 61.265625 -0.816406 59.609375 -0.585938 57.765625 -0.296875 C 55.929688 -0.015625 54.15625 0.0625 52.4375 -0.0625 C 50.726562 -0.1875 49.300781 -0.695312 48.15625 -1.59375 C 47.007812 -2.488281 46.4375 -4 46.4375 -6.125 C 46.351562 -12.164062 46.3125 -18.226562 46.3125 -24.3125 C 46.3125 -30.40625 46.066406 -36.429688 45.578125 -42.390625 C 45.335938 -45.742188 44.421875 -48.707031 42.828125 -51.28125 C 41.234375 -53.851562 38.515625 -55.300781 34.671875 -55.625 C 34.429688 -55.707031 34.109375 -55.75 33.703125 -55.75 C 30.265625 -55.75 27.503906 -54.929688 25.421875 -53.296875 C 23.335938 -51.660156 21.785156 -49.535156 20.765625 -46.921875 C 19.742188 -44.316406 19.066406 -41.5625 18.734375 -38.65625 C 18.410156 -35.757812 18.289062 -33.003906 18.375 -30.390625 C 18.457031 -26.796875 18.519531 -23.179688 18.5625 -19.546875 C 18.601562 -15.910156 18.625 -12.296875 18.625 -8.703125 C 18.707031 -5.835938 18.421875 -3.851562 17.765625 -2.75 C 17.109375 -1.65625 16.003906 -1.003906 14.453125 -0.796875 C 12.898438 -0.585938 10.78125 -0.363281 8.09375 -0.125 C 4.988281 0.125 2.90625 -0.566406 1.84375 -2.203125 C 0.78125 -3.835938 0.25 -6.082031 0.25 -8.9375 C 0.25 -14.738281 0.25 -20.578125 0.25 -26.453125 C 0.25 -32.335938 0.25 -38.222656 0.25 -44.109375 C 0.25 -47.046875 0.25 -49.960938 0.25 -52.859375 C 0.25 -55.765625 0.25 -58.691406 0.25 -61.640625 C 0.25 -62.773438 0.1875 -64.160156 0.0625 -65.796875 C -0.0625 -67.429688 0.285156 -68.65625 1.109375 -69.46875 C 1.429688 -69.882812 2.207031 -70.09375 3.4375 -70.09375 C 3.675781 -70.09375 3.957031 -70.09375 4.28125 -70.09375 C 4.613281 -70.09375 4.941406 -70.050781 5.265625 -69.96875 C 6.410156 -69.800781 7.515625 -69.613281 8.578125 -69.40625 C 9.640625 -69.207031 10.703125 -69.023438 11.765625 -68.859375 C 13.484375 -68.535156 15.21875 -68.226562 16.96875 -67.9375 C 18.726562 -67.65625 20.503906 -67.390625 22.296875 -67.140625 C 22.460938 -67.140625 22.601562 -67.140625 22.71875 -67.140625 C 22.84375 -67.140625 22.945312 -67.140625 23.03125 -67.140625 C 23.851562 -67.140625 24.585938 -67.257812 25.234375 -67.5 C 25.890625 -67.75 26.503906 -67.957031 27.078125 -68.125 C 27.242188 -68.289062 27.425781 -68.394531 27.625 -68.4375 C 27.832031 -68.476562 27.976562 -68.539062 28.0625 -68.625 C 30.34375 -69.351562 32.421875 -69.921875 34.296875 -70.328125 C 36.179688 -70.742188 37.941406 -70.953125 39.578125 -70.953125 C 44.554688 -70.953125 48.804688 -69.03125 52.328125 -65.1875 C 54.609375 -62.894531 56.972656 -61.75 59.421875 -61.75 C 60.898438 -61.75 62.226562 -62.078125 63.40625 -62.734375 C 64.59375 -63.390625 65.675781 -64.082031 66.65625 -64.8125 C 66.90625 -64.976562 67.128906 -65.140625 67.328125 -65.296875 C 67.535156 -65.460938 67.71875 -65.585938 67.875 -65.671875 C 73.1875 -69.265625 78.828125 -71.0625 84.796875 -71.0625 C 88.878906 -71.0625 92.757812 -70.203125 96.4375 -68.484375 C 100.113281 -66.773438 103.296875 -64.242188 105.984375 -60.890625 C 107.785156 -58.691406 109.070312 -56.179688 109.84375 -53.359375 C 110.625 -50.546875 111.113281 -47.566406 111.3125 -44.421875 C 111.519531 -41.273438 111.601562 -38.148438 111.5625 -35.046875 C 111.519531 -31.941406 111.625 -29.039062 111.875 -26.34375 C 112.195312 -22.75 112.519531 -19.03125 112.84375 -15.1875 C 113.175781 -11.351562 112.648438 -7.679688 111.265625 -4.171875 C 110.691406 -2.773438 109.832031 -1.875 108.6875 -1.46875 C 107.539062 -1.0625 106.269531 -0.914062 104.875 -1.03125 C 103.488281 -1.15625 102.0625 -1.179688 100.59375 -1.109375 C 98.550781 -1.109375 97.0625 -1.207031 96.125 -1.40625 C 95.1875 -1.613281 94.570312 -2.1875 94.28125 -3.125 C 94 -4.0625 93.773438 -5.59375 93.609375 -7.71875 C 93.285156 -13.757812 93.164062 -19.84375 93.25 -25.96875 C 93.332031 -32.101562 93.046875 -38.109375 92.390625 -43.984375 C 91.984375 -47.660156 90.738281 -50.539062 88.65625 -52.625 C 86.570312 -54.707031 83.894531 -55.75 80.625 -55.75 C 80.300781 -55.75 79.929688 -55.726562 79.515625 -55.6875 C 79.109375 -55.644531 78.703125 -55.582031 78.296875 -55.5 Z M 78.296875 -55.5 "/></g></g></g><g fill="#000000" fill-opacity="1"><g transform="translate(115.978348, 98.195716)"><g><path d="M 4.65625 -77.1875 C 2.851562 -78.332031 1.546875 -79.945312 0.734375 -82.03125 C -0.078125 -84.113281 -0.117188 -86.378906 0.609375 -88.828125 C 2.003906 -93.648438 5.273438 -96.144531 10.421875 -96.3125 L 10.65625 -96.3125 C 13.1875 -96.3125 15.3125 -95.632812 17.03125 -94.28125 C 18.75 -92.9375 19.894531 -91.082031 20.46875 -88.71875 C 21.195312 -85.769531 20.90625 -83.070312 19.59375 -80.625 C 18.289062 -78.175781 16.085938 -76.582031 12.984375 -75.84375 C 11.429688 -75.519531 9.941406 -75.476562 8.515625 -75.71875 C 7.085938 -75.96875 5.800781 -76.457031 4.65625 -77.1875 Z M 2.9375 -64.9375 C 4.082031 -65.675781 5.71875 -66.003906 7.84375 -65.921875 C 9.070312 -65.921875 10.421875 -65.960938 11.890625 -66.046875 C 13.359375 -66.128906 14.722656 -65.984375 15.984375 -65.609375 C 17.253906 -65.242188 18.09375 -64.410156 18.5 -63.109375 C 19.238281 -61.066406 19.484375 -58.59375 19.234375 -55.6875 C 18.992188 -52.789062 18.875 -50.28125 18.875 -48.15625 C 18.957031 -43.175781 19 -38.234375 19 -33.328125 C 19 -28.429688 19.035156 -23.488281 19.109375 -18.5 C 19.109375 -17.6875 19.210938 -16.316406 19.421875 -14.390625 C 19.628906 -12.472656 19.75 -10.410156 19.78125 -8.203125 C 19.820312 -6.003906 19.597656 -4.128906 19.109375 -2.578125 C 18.617188 -1.023438 17.640625 -0.207031 16.171875 -0.125 C 14.296875 -0.0390625 12.335938 0.0195312 10.296875 0.0625 C 8.253906 0.101562 6.289062 0 4.40625 -0.25 C 3.101562 -0.40625 2.207031 -1.113281 1.71875 -2.375 C 1.226562 -3.644531 0.960938 -5.179688 0.921875 -6.984375 C 0.878906 -8.785156 0.9375 -10.5 1.09375 -12.125 C 1.257812 -13.757812 1.34375 -15.023438 1.34375 -15.921875 C 1.257812 -19.273438 1.195312 -22.644531 1.15625 -26.03125 C 1.125 -29.425781 1.109375 -32.796875 1.109375 -36.140625 C 1.023438 -39.003906 0.984375 -41.863281 0.984375 -44.71875 C 0.984375 -47.582031 0.941406 -50.398438 0.859375 -53.171875 C 0.859375 -55.546875 0.816406 -57.832031 0.734375 -60.03125 C 0.648438 -62.238281 1.382812 -63.875 2.9375 -64.9375 Z M 2.9375 -64.9375 "/></g></g></g><g fill="#000000" fill-opacity="1"><g transform="translate(8.407365, 180.515166)"><g><path d="M 60.53125 -14.09375 C 61.1875 -13.4375 61.515625 -12.289062 61.515625 -10.65625 C 61.515625 -9.019531 61.535156 -7.363281 61.578125 -5.6875 C 61.617188 -4.019531 61.3125 -2.613281 60.65625 -1.46875 C 60 -0.320312 58.523438 0.207031 56.234375 0.125 C 52.316406 -0.0390625 48.394531 -0.164062 44.46875 -0.25 C 40.550781 -0.332031 36.59375 -0.375 32.59375 -0.375 C 27.851562 -0.375 23.09375 -0.351562 18.3125 -0.3125 C 13.539062 -0.269531 8.742188 -0.25 3.921875 -0.25 C 2.117188 -0.25 0.972656 -1.003906 0.484375 -2.515625 C -0.00390625 -4.023438 -0.0664062 -5.859375 0.296875 -8.015625 C 0.671875 -10.179688 1.179688 -12.242188 1.828125 -14.203125 C 2.484375 -16.171875 3.054688 -17.519531 3.546875 -18.25 C 5.023438 -20.863281 6.863281 -23.253906 9.0625 -25.421875 C 11.269531 -27.585938 13.351562 -29.816406 15.3125 -32.109375 C 17.4375 -34.722656 19.519531 -37.332031 21.5625 -39.9375 C 23.601562 -42.550781 25.523438 -45.25 27.328125 -48.03125 C 27.984375 -49.09375 28.535156 -50.316406 28.984375 -51.703125 C 29.429688 -53.097656 28.878906 -54.117188 27.328125 -54.765625 C 26.753906 -55.015625 26.179688 -55.160156 25.609375 -55.203125 C 25.035156 -55.242188 24.460938 -55.265625 23.890625 -55.265625 C 21.847656 -55.265625 19.804688 -55.265625 17.765625 -55.265625 C 15.722656 -55.265625 13.679688 -55.222656 11.640625 -55.140625 C 10.578125 -55.140625 9.164062 -55.054688 7.40625 -54.890625 C 5.65625 -54.734375 4.367188 -55.0625 3.546875 -55.875 C 2.984375 -56.53125 2.640625 -57.507812 2.515625 -58.8125 C 2.390625 -60.125 2.328125 -61.554688 2.328125 -63.109375 C 2.410156 -66.285156 2.695312 -68.320312 3.1875 -69.21875 C 3.675781 -70.125 5.066406 -70.578125 7.359375 -70.578125 C 7.515625 -70.578125 7.632812 -70.578125 7.71875 -70.578125 C 7.800781 -70.578125 7.882812 -70.578125 7.96875 -70.578125 C 13.113281 -70.410156 18.257812 -70.304688 23.40625 -70.265625 C 28.550781 -70.222656 33.695312 -70.203125 38.84375 -70.203125 C 40.226562 -70.203125 42.125 -70.34375 44.53125 -70.625 C 46.945312 -70.914062 49.378906 -71.039062 51.828125 -71 C 54.273438 -70.96875 56.273438 -70.539062 57.828125 -69.71875 C 59.378906 -68.90625 60.035156 -67.4375 59.796875 -65.3125 C 59.222656 -61.3125 58.203125 -57.632812 56.734375 -54.28125 C 55.265625 -50.925781 53.222656 -47.738281 50.609375 -44.71875 C 46.929688 -40.632812 43.253906 -36.59375 39.578125 -32.59375 C 35.898438 -28.59375 32.265625 -24.550781 28.671875 -20.46875 C 27.691406 -19.40625 27.488281 -18.257812 28.0625 -17.03125 C 28.632812 -15.882812 29.71875 -15.1875 31.3125 -14.9375 C 32.90625 -14.695312 34.597656 -14.660156 36.390625 -14.828125 C 38.191406 -14.992188 39.582031 -15.078125 40.5625 -15.078125 C 43.414062 -15.078125 46.269531 -15.078125 49.125 -15.078125 C 51.988281 -15.078125 54.851562 -15.078125 57.71875 -15.078125 C 58.9375 -15.078125 59.875 -14.75 60.53125 -14.09375 Z M 60.53125 -14.09375 "/></g></g></g><g fill="#000000" fill-opacity="1"><g transform="translate(70.400936, 180.515166)"><g><path d="M 59.921875 -3.0625 C 59.265625 -2.25 58.242188 -1.800781 56.859375 -1.71875 C 55.546875 -1.71875 54.273438 -1.984375 53.046875 -2.515625 C 51.828125 -3.046875 50.625 -3.578125 49.4375 -4.109375 C 48.257812 -4.640625 46.972656 -4.90625 45.578125 -4.90625 C 44.679688 -4.90625 43.78125 -4.84375 42.875 -4.71875 C 41.976562 -4.59375 41.164062 -4.445312 40.4375 -4.28125 L 39.828125 -4.171875 C 37.453125 -3.753906 35.140625 -3.21875 32.890625 -2.5625 C 30.648438 -1.914062 28.550781 -1.265625 26.59375 -0.609375 C 25.6875 -0.367188 24.765625 -0.164062 23.828125 0 C 22.890625 0.164062 21.929688 0.25 20.953125 0.25 C 14.992188 0.25 9.96875 -2.117188 5.875 -6.859375 C 1.21875 -12.171875 -0.613281 -18.707031 0.375 -26.46875 C 0.78125 -29.570312 1.859375 -32.347656 3.609375 -34.796875 C 5.367188 -37.242188 7.597656 -39.125 10.296875 -40.4375 C 11.679688 -41.09375 13.148438 -41.5625 14.703125 -41.84375 C 16.253906 -42.125 17.847656 -42.390625 19.484375 -42.640625 C 19.890625 -42.640625 20.253906 -42.660156 20.578125 -42.703125 C 20.910156 -42.742188 21.238281 -42.804688 21.5625 -42.890625 L 37.609375 -45.09375 C 39.734375 -45.414062 41.0625 -46.046875 41.59375 -46.984375 C 42.125 -47.929688 42.429688 -48.6875 42.515625 -49.25 C 42.679688 -50.644531 42.253906 -51.910156 41.234375 -53.046875 C 40.210938 -54.191406 39.003906 -54.972656 37.609375 -55.390625 C 35.078125 -56.367188 32.46875 -56.859375 29.78125 -56.859375 L 29.40625 -56.859375 C 26.875 -56.773438 24.460938 -56.40625 22.171875 -55.75 C 19.890625 -55.09375 17.6875 -54.316406 15.5625 -53.421875 C 14.90625 -53.097656 14.128906 -52.9375 13.234375 -52.9375 C 11.429688 -52.9375 9.648438 -53.523438 7.890625 -54.703125 C 6.140625 -55.890625 4.898438 -57.300781 4.171875 -58.9375 C 3.835938 -59.59375 3.691406 -60.144531 3.734375 -60.59375 C 3.773438 -61.039062 3.835938 -61.390625 3.921875 -61.640625 C 4.410156 -62.691406 5.367188 -63.644531 6.796875 -64.5 C 8.222656 -65.363281 9.734375 -66.101562 11.328125 -66.71875 C 12.921875 -67.332031 14.25 -67.800781 15.3125 -68.125 C 21.195312 -70.007812 27.117188 -70.953125 33.078125 -70.953125 C 33.648438 -70.953125 34.222656 -70.953125 34.796875 -70.953125 C 35.367188 -70.953125 35.941406 -70.910156 36.515625 -70.828125 C 39.367188 -70.660156 42.53125 -70.109375 46 -69.171875 C 49.476562 -68.234375 52.441406 -66.457031 54.890625 -63.84375 C 57.753906 -60.738281 59.472656 -57.632812 60.046875 -54.53125 C 60.691406 -51.007812 60.910156 -47.347656 60.703125 -43.546875 C 60.503906 -39.753906 60.445312 -36.0625 60.53125 -32.46875 C 60.53125 -28.789062 60.53125 -25.09375 60.53125 -21.375 C 60.53125 -17.664062 60.570312 -14.015625 60.65625 -10.421875 C 60.65625 -9.191406 60.710938 -7.878906 60.828125 -6.484375 C 60.953125 -5.097656 60.648438 -3.957031 59.921875 -3.0625 Z M 42.15625 -24.140625 C 42.800781 -25.441406 43 -26.539062 42.75 -27.4375 C 42.507812 -28.34375 42.269531 -28.957031 42.03125 -29.28125 C 41.695312 -29.769531 41.179688 -30.238281 40.484375 -30.6875 C 39.796875 -31.144531 38.835938 -31.410156 37.609375 -31.484375 L 36.640625 -31.609375 C 35.898438 -31.691406 35.140625 -31.734375 34.359375 -31.734375 C 33.585938 -31.734375 32.753906 -31.734375 31.859375 -31.734375 C 30.472656 -31.734375 28.796875 -31.585938 26.828125 -31.296875 C 24.867188 -31.015625 22.992188 -30.265625 21.203125 -29.046875 C 19.972656 -28.054688 19.195312 -27.035156 18.875 -25.984375 C 18.539062 -25.078125 18.5 -23.929688 18.75 -22.546875 C 19.320312 -20.015625 20.421875 -18.050781 22.046875 -16.65625 C 23.679688 -15.269531 25.644531 -14.578125 27.9375 -14.578125 C 30.789062 -14.578125 33.609375 -15.515625 36.390625 -17.390625 C 39.171875 -19.273438 41.09375 -21.523438 42.15625 -24.140625 Z M 42.15625 -24.140625 "/></g></g></g></g></g></svg>